<svg viewBox="0 0 1024 1024" version="1.1" xmlns="http://www.w3.org/2000/svg" p-id="1133" width="400" height="400">
  <path
    d="M64.682667 512c2.048-148.2752 27.7504-271.018667 103.082666-344.2688C240.913067 92.433067 363.690667 66.696533 512 64.648533c148.2752 2.048 271.018667 27.784533 344.2688 103.082667 75.298133 73.216 101.034667 195.9936 103.082667 344.2688-2.048 148.2752-27.818667 271.018667-103.082667 344.2688-73.216 75.298133-195.9936 101.034667-344.2688 103.082667-148.2752-2.048-271.018667-27.818667-344.2688-103.082667C92.433067 783.018667 66.696533 660.2752 64.648533 512z"
    fill="#1CB5E0" p-id="1134"></path>
  <path
    d="M512 785.066667c-150.459733 0-273.066667-122.606933-273.066667-273.066667 0-150.459733 122.606933-273.066667 273.066667-273.066667 150.459733 0 273.066667 122.606933 273.066667 273.066667 0 55.978667-23.7568 96.392533-70.4512 120.149333-28.125867 14.199467-58.1632 15.837867-84.923734 16.930134-32.494933 1.6384-52.974933 3.2768-62.805333 19.933866-7.099733 12.014933-1.911467 22.391467 6.826667 38.229334 8.192 14.472533 19.387733 34.679467 3.822933 53.521066-17.749333 21.572267-44.2368 24.302933-65.536 24.302934z m0-517.461334c-134.894933 0-244.394667 109.7728-244.394667 244.394667s109.7728 244.394667 244.394667 244.394667c22.391467 0 35.498667-4.096 43.4176-13.9264 2.730667-3.2768 1.365333-7.099733-6.5536-21.572267-8.738133-15.837867-22.1184-39.867733-6.5536-66.628267 18.0224-30.856533 52.4288-32.494933 86.016-33.860266 24.849067-1.092267 50.517333-2.4576 73.181867-13.9264 36.864-18.8416 54.8864-49.698133 54.8864-94.754134 0-134.621867-109.499733-244.1216-244.394667-244.1216z"
    fill="#000851" p-id="1135"></path>
  <path
    d="M315.665067 481.962667a37.410133 37.410133 0 1 0 74.786133 0 37.410133 37.410133 0 0 0-74.786133 0zM406.3232 369.4592a37.410133 37.410133 0 1 0 74.786133 0 37.410133 37.410133 0 0 0-74.786133 0zM545.5872 361.2672a37.410133 37.410133 0 1 0 74.820267 0 37.410133 37.410133 0 0 0-74.820267 0zM630.510933 466.397867a37.410133 37.410133 0 1 0 74.820267 0 37.410133 37.410133 0 0 0-74.820267 0z"
    fill="#000851" p-id="1136"></path>
</svg>
